<svg xmlns="http://www.w3.org/2000/svg" version="1.1" xmlns:xlink="http://www.w3.org/1999/xlink" xmlns:svgjs="http://svgjs.dev/svgjs" width="1000" height="1000" viewBox="0 0 1000 1000"><rect width="1000" height="1000" fill="#ffffff"></rect><g transform="matrix(0.7,0,0,0.7,149.57575765472865,421.51919205584454)"><svg viewBox="0 0 396 89" data-background-color="#ffffff" preserveAspectRatio="xMidYMid meet" height="224" width="1000" xmlns="http://www.w3.org/2000/svg" xmlns:xlink="http://www.w3.org/1999/xlink"><g id="tight-bounds" transform="matrix(1,0,0,1,0.23999995532494722,0.045866754016827826)"><svg viewBox="0 0 395.52 88.90826649196636" height="88.90826649196636" width="395.52"><g><svg viewBox="0 0 466.72645502603984 104.91464411990773" height="88.90826649196636" width="395.52"><g transform="matrix(1,0,0,1,71.20645502603992,32.42014785829082)"><svg viewBox="0 0 395.5199999999999 40.074348403326105" height="40.074348403326105" width="395.5199999999999"><g id="textblocktransform"><svg viewBox="0 0 395.5199999999999 40.074348403326105" height="40.074348403326105" width="395.5199999999999" id="textblock"><g><svg viewBox="0 0 395.5199999999999 40.074348403326105" height="40.074348403326105" width="395.5199999999999"><g transform="matrix(1,0,0,1,0,0)"><svg width="395.5199999999999" viewBox="4.349999904632568 -35.83000183105469 357.75 36.26000213623047" height="40.074348403326105" data-palette-color="#ed2647"><path d="M4.35-35.83L26.43-35.83 26.43-31.88 9.22-31.88 9.22-19.35 23.93-19.35 23.93-15.4 9.22-15.4 9.22 0 4.35 0 4.35-35.83ZM46.57-3.85L46.57-3.85Q48.8-3.85 50.55-4.6 52.3-5.35 53.51-6.7 54.72-8.05 55.36-9.93 56-11.8 56-14.05L56-14.05 56-35.83 60.82-35.83 60.82-14.05Q60.82-10.95 59.84-8.3 58.85-5.65 57.01-3.71 55.17-1.78 52.52-0.68 49.87 0.43 46.57 0.43L46.57 0.43Q43.27 0.43 40.62-0.68 37.97-1.78 36.12-3.71 34.27-5.65 33.28-8.3 32.3-10.95 32.3-14.05L32.3-14.05 32.3-35.83 37.12-35.83 37.12-14.08Q37.12-11.83 37.76-9.95 38.4-8.08 39.61-6.73 40.82-5.38 42.59-4.61 44.35-3.85 46.57-3.85ZM65.5-35.83L93.55-35.83 93.55-31.75 81.97-31.75 81.97 0 77.12 0 77.12-31.75 65.5-31.75 65.5-35.83ZM112.57-3.85L112.57-3.85Q114.79-3.85 116.54-4.6 118.29-5.35 119.51-6.7 120.72-8.05 121.36-9.93 121.99-11.8 121.99-14.05L121.99-14.05 121.99-35.83 126.82-35.83 126.82-14.05Q126.82-10.95 125.83-8.3 124.84-5.65 123.01-3.71 121.17-1.78 118.52-0.68 115.87 0.43 112.57 0.43L112.57 0.43Q109.27 0.43 106.62-0.68 103.97-1.78 102.12-3.71 100.27-5.65 99.28-8.3 98.29-10.95 98.29-14.05L98.29-14.05 98.29-35.83 103.12-35.83 103.12-14.08Q103.12-11.83 103.76-9.95 104.39-8.08 105.61-6.73 106.82-5.38 108.58-4.61 110.34-3.85 112.57-3.85ZM144.14-14.95L140.47-14.95 140.47 0 135.64 0 135.64-35.83 145.77-35.83Q149.17-35.83 151.64-35.14 154.12-34.45 155.73-33.15 157.34-31.85 158.12-30.01 158.89-28.18 158.89-25.9L158.89-25.9Q158.89-24 158.29-22.35 157.69-20.7 156.55-19.39 155.42-18.07 153.78-17.15 152.14-16.23 150.07-15.75L150.07-15.75Q150.97-15.23 151.67-14.23L151.67-14.23 162.12 0 157.82 0Q156.49 0 155.87-1.03L155.87-1.03 146.57-13.83Q146.14-14.43 145.64-14.69 145.14-14.95 144.14-14.95L144.14-14.95ZM140.47-32L140.47-18.48 145.54-18.48Q147.67-18.48 149.28-18.99 150.89-19.5 151.98-20.44 153.07-21.38 153.62-22.68 154.17-23.98 154.17-25.55L154.17-25.55Q154.17-28.75 152.05-30.38 149.94-32 145.77-32L145.77-32 140.47-32ZM167.34-35.83L189.41-35.83 189.41-31.88 172.21-31.88 172.21-19.98 186.14-19.98 186.14-16.18 172.21-16.18 172.21-3.95 189.41-3.95 189.41 0 167.34 0 167.34-35.83ZM206.03-35.83L228.11-35.83 228.11-31.88 210.91-31.88 210.91-19.35 225.61-19.35 225.61-15.4 210.91-15.4 210.91 0 206.03 0 206.03-35.83ZM239.18-35.83L239.18-4.08 254.68-4.08 254.68 0 234.33 0 234.33-35.83 239.18-35.83ZM275.18-35.83L289.5 0 285.75 0Q285.1 0 284.7-0.33 284.3-0.65 284.1-1.15L284.1-1.15 280.75-9.8 264.68-9.8 261.33-1.15Q261.15-0.7 260.73-0.35 260.3 0 259.68 0L259.68 0 255.93 0 270.25-35.83 275.18-35.83ZM271.65-27.85L266.03-13.3 279.4-13.3 273.78-27.88Q273.23-29.23 272.7-31.25L272.7-31.25Q272.43-30.23 272.17-29.36 271.9-28.5 271.65-27.85L271.65-27.85ZM311.65-12.95L311.65-12.95Q312-12.35 312.26-11.69 312.53-11.03 312.78-10.35L312.78-10.35Q313.03-11.05 313.3-11.69 313.58-12.33 313.93-12.98L313.93-12.98 326.05-35Q326.38-35.58 326.73-35.7 327.08-35.83 327.73-35.83L327.73-35.83 331.3-35.83 331.3 0 327.05 0 327.05-26.33Q327.05-26.85 327.08-27.45 327.1-28.05 327.15-28.68L327.15-28.68 314.88-6.28Q314.25-5.15 313.13-5.15L313.13-5.15 312.43-5.15Q311.3-5.15 310.68-6.28L310.68-6.28 298.13-28.75Q298.2-28.1 298.24-27.48 298.28-26.85 298.28-26.33L298.28-26.33 298.28 0 294.03 0 294.03-35.83 297.6-35.83Q298.25-35.83 298.6-35.7 298.95-35.58 299.28-35L299.28-35 311.65-12.95ZM340.02-35.83L362.1-35.83 362.1-31.88 344.9-31.88 344.9-19.98 358.82-19.98 358.82-16.18 344.9-16.18 344.9-3.95 362.1-3.95 362.1 0 340.02 0 340.02-35.83Z" opacity="1" transform="matrix(1,0,0,1,0,0)" fill="#000000" class="wordmark-text-0" data-fill-palette-color="primary" id="text-0"></path></svg></g></svg></g></svg></g></svg></g><g><svg viewBox="0 0 61.7458631523763 104.91464411990773" height="104.91464411990773" width="61.7458631523763"><g><svg xmlns="http://www.w3.org/2000/svg" xmlns:xlink="http://www.w3.org/1999/xlink" version="1.1" x="0" y="0" viewBox="20.884765625 2.5829999446868896 55.81188201904297 94.83200073242188" enable-background="new 0 0 100 100" xml:space="preserve" height="104.91464411990773" width="61.7458631523763" class="icon-icon-0" data-fill-palette-color="accent" id="icon-0"><path fill="#000000" d="M35.443 2.583c0 0 14.836 10.48 0 32.011-13.407 19.457-21.41 40.113-6.609 55.539 4.288 4.47 9.373 6.745 14.568 7.282-8.4-2.451-14.658-10.83-7.364-25.817 4.486-9.218 15.658-20.073 11.938-32.859 0 0 10.057 12.669 3.208 31.977-3.111 8.77 10.599 9.728 6.885 0.154-2.246-5.785 10.602 11.497 3.683 21.482 6.529-4.512 10.063-11.938 12.655-19.868C81.76 50 72.084 13.733 35.443 2.583z" data-fill-palette-color="accent"></path></svg></g></svg></g></svg></g><defs></defs></svg><rect width="395.52" height="88.90826649196636" fill="none" stroke="none" visibility="hidden"></rect></g></svg></g></svg>